{"title":"47 Ronin 2013 1080p.BluRay.5.1.x264 . NVEE","uid":10038063,"size":2609159271,"categoryP":"video","categoryS":"hd___movies","magnet":"?xt=urn:btih:09b3cd26f336bdbb716e567a2668df26986e8ad6&amp;dn=47+Ronin+2013+1080p.BluRay.5.1.x264+.+NVEE&amp;tr=udp%3A%2F%2Ftracker.openbittorrent.com%3A80&amp;tr=udp%3A%2F%2Fopen.demonii.com%3A1337&amp;tr=udp%3A%2F%2Ftracker.coppersurfer.tk%3A6969&amp;tr=udp%3A%2F%2Fexodus.desync.com%3A6969","seeders":5,"leechers":0,"uploader":".NVEE","files":-1,"time":1398427119,"description":"Quick note :\nIf you require a torrent release I have posted in the past, not seeding,...\nPlease do not hesitate to inform me in any means you find fit to do so.\nTorrent requests also &quot;Always Welcome.&quot;\n\n\nFULL_INFOs\n\n99.99% --- SYNCED GUARANTEED \n\n&quot;Totally scrutinized / analyzed to be a verified torrent.&quot;\n___________________________________________\n\nSource : Blu-ray ~ 1080p\n\n\n\nSpoken Language : English\n\nAudio : 6 ~ Channels Only\n\n\nSubs Info :\n\nNil\n\nAll .srt &amp; .idx subs can be turned On/Off\n_____________________________________\n---------------------------------------------------------------------------------\n\nGeneral Metadata\n\nComplete name : 47 Ronin 2013.800p.BluRay.5.1.x264 . NVEE.mp4\nFormat : MPEG-4\nFormat profile : Base Media\nCodec ID : isom\nFile size : 2.43 GiB\nDuration : 1h 58mn\nOverall bit rate : 2 930 Kbps\nEncoded date : UTC 2014-04-15 06:02:12\nTagged date : UTC 2014-04-15 06:02:12\n\n\nVideo\n\nID : 1\nFormat : AVC\nFormat/Info : Advanced Video Codec\nFormat profile : &lt;a class=&quot;__cf_email__&quot; href=&quot;/cdn-cgi/l/email-protection&quot; data-cfemail=&quot;1b53727c735b572f352b&quot;&gt;[email&amp;#160;protected]&lt;/a&gt;&lt;script cf-hash='f9e31' type=&quot;text/javascript&quot;&gt;\n/* &lt;![CDATA[ */!function(){try{var t=&quot;currentScript&quot;in document?document.currentScript:function(){for(var t=document.getElementsByTagName(&quot;script&quot;),e=t.length;e--;)if(t[e].getAttribute(&quot;cf-hash&quot;))return t[e]}();if(t&amp;&amp;t.previousSibling){var e,r,n,i,c=t.previousSibling,a=c.getAttribute(&quot;data-cfemail&quot;);if(a){for(e=&quot;&quot;,r=parseInt(a.substr(0,2),16),n=2;a.length-n;n+=2)i=parseInt(a.substr(n,2),16)^r,e+=String.fromCharCode(i);e=document.createTextNode(e),c.parentNode.replaceChild(e,c)}}}catch(u){}}();/* ]]&gt; */&lt;/script&gt;\nFormat settings, CABAC : Yes\nFormat settings, ReFrames : 3 frames\nCodec ID : avc1\nCodec ID/Info : Advanced Video Coding\nDuration : 1h 58mn\nBit rate : 2 480 Kbps\nMaximum bit rate : 15.3 Mbps\nWidth : 1 920 pixels\nHeight : 800 pixels\nDisplay aspect ratio : 2.40:1\nFrame rate mode : Constant\nFrame rate : 23.976 fps\nColor space : YUV\nChroma subsampling : 4:2:0\nBit depth : 8 bits\nScan type : Progressive\nBits/(Pixel*Frame) : 0.067\nStream size : 2.06 GiB (85%)\nWriting library : x264 core 138 r2358 9e941d1\nEncoded from Physical Blu-ray\n\n\nAudio\n\nID : 2\nFormat : AC-3\nFormat/Info : Audio Coding 3\nMode extension : CM (complete main)\nFormat settings, Endianness : Big\nCodec ID : ac-3\nDuration : 1h 58mn\nBit rate mode : Constant\nBit rate : 448 Kbps\nChannel(s) : 6 channels\nChannel positions : Front: L C R, Side: L R, LFE\nSampling rate : 48.0 KHz\nBit depth : 16 bits\nCompression mode : Lossy\nStream size : 380 MiB (15%)\nLanguage : English\nEncoded date : UTC 2014-04-15 06:12:04\nTagged date : UTC 2014-04-15 06:13:27\nEncoded from Physical Blu-ray 6 Channel audio &quot;Always&quot;.\n\n\nEnj0y !","torrent":{"xt":"urn:btih:09b3cd26f336bdbb716e567a2668df26986e8ad6","amp;dn":"47+Ronin+2013+1080p.BluRay.5.1.x264+.+NVEE","amp;tr":["udp%3A%2F%2Ftracker.openbittorrent.com%3A80","udp%3A%2F%2Fopen.demonii.com%3A1337","udp%3A%2F%2Ftracker.coppersurfer.tk%3A6969","udp%3A%2F%2Fexodus.desync.com%3A6969"],"infoHash":"09b3cd26f336bdbb716e567a2668df26986e8ad6","infoHashBuffer":{"type":"Buffer","data":[9,179,205,38,243,54,189,187,113,110,86,122,38,104,223,38,152,110,138,214]},"announce":[],"urlList":[]}}